<svg viewBox="0 0 40 37" fill="none" xmlns="http://www.w3.org/2000/svg">
<path fill-rule="evenodd" clip-rule="evenodd" d="M39.9993 23.6773L39.3389 23.6768L33.2549 7.5211C33.286 7.51168 33.3181 7.5077 33.3478 7.49517C33.4878 7.4344 33.6056 7.33788 33.69 7.23513C33.7839 7.12076 33.8456 7.00368 33.8926 6.88752C33.9104 6.84865 33.9211 6.8058 33.9211 6.76022C33.9211 6.58735 33.7821 6.44698 33.61 6.44698C33.4802 6.44698 33.3696 6.52698 33.323 6.64088C33.2883 6.70835 33.25 6.76732 33.2091 6.80752C33.1278 6.88434 33.0793 6.89462 32.9775 6.88255C32.7629 6.8513 32.4611 6.62921 32.2135 6.3906C31.9713 6.16054 31.7019 5.83569 31.3935 5.5663C31.0962 5.2853 30.7527 5.04403 30.3922 4.82864C30.0268 4.61862 29.6264 4.46093 29.2154 4.35639C28.386 4.15267 27.5348 4.20985 26.7882 4.36892C26.0322 4.5217 25.3545 4.75892 24.7229 4.97252C24.0931 5.19057 23.5132 5.39608 22.9789 5.56C22.2517 5.78919 21.6128 5.93128 21.082 6.0144V3.9254C21.4962 3.77077 21.7457 3.51749 21.8248 3.17122C22.0931 1.99573 20.1811 0.169291 20.0998 0.0920088L20.0003 0L19.9015 0.0934019C19.8197 0.170684 17.9081 1.99713 18.1765 3.17261C18.2557 3.51889 18.5054 3.77216 18.9193 3.92679V6.01599C18.3886 5.93287 17.7494 5.79078 17.0219 5.56159C16.4876 5.39714 15.9075 5.19209 15.2782 4.97405C14.6462 4.76051 13.9685 4.52329 13.2124 4.37045C12.4658 4.21184 11.6146 4.15466 10.7853 4.35798C10.3742 4.46252 9.9737 4.61981 9.60793 4.83023C9.24796 5.04556 8.90396 5.28636 8.60708 5.56789C8.29865 5.83728 8.02928 6.16213 7.7875 6.39219C7.53998 6.6308 7.23822 6.85237 7.02349 6.88407C6.92173 6.89615 6.87284 6.88587 6.79193 6.80905C6.75148 6.76885 6.71281 6.71034 6.67817 6.64241C6.63152 6.52897 6.52085 6.44851 6.39105 6.44851C6.21909 6.44851 6.07998 6.58835 6.07998 6.76168C6.07998 6.80726 6.09068 6.84971 6.10796 6.88898C6.15548 7.00514 6.21777 7.12222 6.31108 7.23659C6.39554 7.33934 6.51287 7.4354 6.65329 7.49662C6.68312 7.5091 6.71512 7.51314 6.74574 7.52256L0.661337 23.6769H0L0.000461162 23.6774H0C0 24.6857 0.336476 27.0577 7.11059 27.0577C13.8843 27.0577 14.2208 24.6853 14.2208 23.6774H13.5599L7.45947 7.47964C7.57146 7.43765 7.67328 7.38492 7.76837 7.33132C7.95993 7.22093 8.12926 7.09542 8.28836 6.96315C8.62035 6.68433 8.8581 6.42476 9.14522 6.20538C9.42204 5.97307 9.72611 5.79125 10.0319 5.63217C10.3417 5.47986 10.6639 5.3775 10.9892 5.31581C11.6426 5.19966 12.3123 5.27873 12.9599 5.45923C13.6074 5.63171 14.2354 5.89347 14.8385 6.1415C15.4431 6.39391 16.0262 6.64281 16.5818 6.8523C17.1369 7.06365 17.6645 7.23473 18.1432 7.36389C18.421 7.43626 18.6791 7.49391 18.9188 7.54081V24.6097C18.4756 24.6464 18.1263 25.0212 18.1263 25.4756C18.1263 25.9014 18.4245 26.2517 18.8277 26.3281V28.1622C18.8277 32.5062 14.4324 35.262 12.5772 35.262C11.9945 35.262 11.6897 35.6989 11.6897 36.131C11.6897 36.5631 11.9945 37 12.5772 37H27.4227C28.0054 37 28.3098 36.5626 28.3098 36.131C28.3098 35.6985 28.005 35.262 27.4227 35.262C25.5672 35.262 21.1726 32.5062 21.1726 28.1622V26.3281C21.5753 26.2522 21.8744 25.9014 21.8744 25.4756C21.8744 25.0208 21.5246 24.6464 21.0815 24.6097V7.54074C21.3211 7.49424 21.5792 7.43666 21.8566 7.36382C22.3357 7.23513 22.8637 7.06358 23.4183 6.85223C23.9739 6.64268 24.5575 6.39385 25.1614 6.14144C25.765 5.89347 26.393 5.63164 27.0406 5.45917C27.6877 5.27866 28.3574 5.19959 29.0112 5.31575C29.3361 5.37697 29.6592 5.47927 29.9686 5.6321C30.2743 5.79118 30.5787 5.97301 30.8552 6.20532C31.1424 6.42469 31.3805 6.68473 31.7121 6.96308C31.8711 7.09489 32.0405 7.22086 32.232 7.33125C32.3276 7.38485 32.4289 7.43759 32.541 7.47958L26.4405 23.6773H25.7792C25.7792 24.6857 26.1161 27.0577 32.8899 27.0577C39.6631 27.0577 40 24.6852 40 23.6773H39.9993ZM1.278 23.6768L7.11086 8.18951L12.9437 23.6773L1.278 23.6768ZM27.0577 23.6773L32.8901 8.18951L38.7221 23.6768L27.0577 23.6773Z" fill="currentColor"/>
</svg>
