<svg viewBox="0 0 34 43" fill="none" xmlns="http://www.w3.org/2000/svg">
<path d="M12.75 38.7H21.25C21.25 39.8404 20.8022 40.9342 20.0052 41.7406C19.2082 42.547 18.1272 43 17 43C15.8728 43 14.7918 42.547 13.9948 41.7406C13.1978 40.9342 12.75 39.8404 12.75 38.7ZM29.75 30.1V17.2C29.747 14.1537 28.6785 11.2068 26.7338 8.88117C24.7891 6.55552 22.0938 5.00121 19.125 4.4935V2.15C19.125 1.57978 18.9011 1.03292 18.5026 0.62972C18.1041 0.226517 17.5636 0 17 0C16.4364 0 15.8959 0.226517 15.4974 0.62972C15.0989 1.03292 14.875 1.57978 14.875 2.15V4.4935C11.9062 5.00121 9.21086 6.55552 7.26619 8.88117C5.32152 11.2068 4.25305 14.1537 4.25 17.2V30.1L0 34.4H34L29.75 30.1Z" fill="currentColor"/>
</svg>
