<svg viewBox="0 0 50 50" fill="none" xmlns="http://www.w3.org/2000/svg">
<path d="M20.8332 40.6252H6.24992V9.37516H41.6666C42.2191 9.37516 42.749 9.15567 43.1397 8.76497C43.5304 8.37427 43.7499 7.84436 43.7499 7.29183C43.7499 6.7393 43.5304 6.20939 43.1397 5.81869C42.749 5.42799 42.2191 5.2085 41.6666 5.2085H4.16658C3.61405 5.2085 3.08415 5.42799 2.69345 5.81869C2.30275 6.20939 2.08325 6.7393 2.08325 7.29183V42.7085C2.08325 43.261 2.30275 43.7909 2.69345 44.1816C3.08415 44.5723 3.61405 44.7918 4.16658 44.7918H20.8332C21.3858 44.7918 21.9157 44.5723 22.3064 44.1816C22.6971 43.7909 22.9166 43.261 22.9166 42.7085C22.9166 42.156 22.6971 41.6261 22.3064 41.2354C21.9157 40.8447 21.3858 40.6252 20.8332 40.6252Z" fill="currentColor"/>
<path d="M47.9167 25C47.9167 21.4085 46.49 17.9641 43.9505 15.4246C41.4109 12.885 37.9666 11.4583 34.3751 11.4583C31.2138 11.4421 28.1496 12.5496 25.7292 14.5833H12.5001C11.9475 14.5833 11.4176 14.8028 11.0269 15.1935C10.6362 15.5842 10.4167 16.1141 10.4167 16.6666C10.4167 17.2192 10.6362 17.7491 11.0269 18.1398C11.4176 18.5305 11.9475 18.75 12.5001 18.75H22.3959C21.6831 20.0399 21.2235 21.4541 21.0417 22.9166H12.5001C11.9475 22.9166 11.4176 23.1361 11.0269 23.5268C10.6362 23.9175 10.4167 24.4474 10.4167 25C10.4167 25.5525 10.6362 26.0824 11.0269 26.4731C11.4176 26.8638 11.9475 27.0833 12.5001 27.0833H21.0417C21.2235 28.5458 21.6831 29.9601 22.3959 31.25H12.5001C11.9475 31.25 11.4176 31.4695 11.0269 31.8602C10.6362 32.2509 10.4167 32.7808 10.4167 33.3333C10.4167 33.8858 10.6362 34.4157 11.0269 34.8064C11.4176 35.1971 11.9475 35.4166 12.5001 35.4166H25.7292L27.0834 36.3541V46.4583C27.0521 47.0608 27.2493 47.6528 27.6355 48.1163C28.0217 48.5797 28.5685 48.8804 29.1667 48.9583C29.4232 48.9523 29.6757 48.8937 29.9086 48.7862C30.1416 48.6787 30.35 48.5246 30.5209 48.3333L34.3751 44.7916L38.2292 48.3333C38.4002 48.5246 38.6086 48.6787 38.8415 48.7862C39.0744 48.8937 39.3269 48.9523 39.5834 48.9583C40.1816 48.8804 40.7285 48.5797 41.1147 48.1163C41.5009 47.6528 41.698 47.0608 41.6667 46.4583V36.4583C43.5762 35.2157 45.147 33.518 46.238 31.518C47.3289 29.5179 47.9058 27.2782 47.9167 25ZM37.5001 33.8541V41.9791L34.3751 39.0625L31.2501 41.9791V33.8541C29.4282 33.1941 27.8524 31.9915 26.7349 30.4084C25.6174 28.8253 25.012 26.9377 25.0001 25C25.0001 22.5136 25.9878 20.129 27.746 18.3708C29.5041 16.6127 31.8887 15.625 34.3751 15.625C36.8615 15.625 39.2461 16.6127 41.0042 18.3708C42.7624 20.129 43.7501 22.5136 43.7501 25C43.7382 26.9377 43.1327 28.8253 42.0153 30.4084C40.8978 31.9915 39.322 33.1941 37.5001 33.8541Z" fill="currentColor"/>
<path d="M34.3751 30.2082C37.2516 30.2082 39.5834 27.8763 39.5834 24.9998C39.5834 22.1234 37.2516 19.7915 34.3751 19.7915C31.4986 19.7915 29.1667 22.1234 29.1667 24.9998C29.1667 27.8763 31.4986 30.2082 34.3751 30.2082Z" fill="currentColor"/>
</svg>
