<svg viewBox="0 0 45 43" fill="none" xmlns="http://www.w3.org/2000/svg">
<path d="M1.9845 36.9012H25.5938C26.6792 36.9012 27.5625 36.0143 27.5625 34.9244V9.88426C27.5625 9.85395 27.5494 9.82759 27.5454 9.79859C27.5415 9.7696 27.5363 9.74456 27.5284 9.71688C27.4982 9.60355 27.4496 9.49811 27.3683 9.41772L18.1821 0.193731C18.102 0.113339 17.997 0.0645771 17.8841 0.0329475C17.8566 0.0250401 17.8316 0.0197685 17.8028 0.0158148C17.7752 0.013179 17.7489 0 17.7188 0H1.97663C0.88725 0 0 0.886947 0 1.97685V34.9244C0 36.0143 0.889875 36.9012 1.9845 36.9012ZM18.375 2.24966L25.3221 9.22531H19.0313C18.6703 9.22531 18.375 8.9301 18.375 8.56636V2.24966ZM1.3125 1.97685C1.3125 1.61311 1.61044 1.3179 1.97663 1.3179H17.0625V8.56636C17.0625 9.65626 17.9458 10.5432 19.0313 10.5432H26.25V34.9244C26.25 35.2881 25.9547 35.5833 25.5938 35.5833H1.9845C1.61306 35.5833 1.3125 35.2881 1.3125 34.9244V1.97685Z" fill="currentColor"/>
<path d="M5.90625 15.8147H21.6562C22.0185 15.8147 22.3125 15.5195 22.3125 15.1558C22.3125 14.792 22.0185 14.4968 21.6562 14.4968H5.90625C5.544 14.4968 5.25 14.792 5.25 15.1558C5.25 15.5195 5.544 15.8147 5.90625 15.8147Z" fill="currentColor"/>
<path d="M5.90625 21.0865H21.6562C22.0185 21.0865 22.3125 20.7912 22.3125 20.4275C22.3125 20.0638 22.0185 19.7686 21.6562 19.7686H5.90625C5.544 19.7686 5.25 20.0638 5.25 20.4275C5.25 20.7912 5.544 21.0865 5.90625 21.0865Z" fill="currentColor"/>
<path d="M5.90625 10.5432H12.4688C12.831 10.5432 13.125 10.248 13.125 9.88429C13.125 9.52055 12.831 9.22534 12.4688 9.22534H5.90625C5.544 9.22534 5.25 9.52055 5.25 9.88429C5.25 10.248 5.544 10.5432 5.90625 10.5432Z" fill="currentColor"/>
<path d="M5.90625 26.3579H21.6562C22.0185 26.3579 22.3125 26.0627 22.3125 25.699C22.3125 25.3352 22.0185 25.04 21.6562 25.04H5.90625C5.544 25.04 5.25 25.3352 5.25 25.699C5.25 26.0627 5.544 26.3579 5.90625 26.3579Z" fill="currentColor"/>
<path d="M5.90625 31.6297H21.6562C22.0185 31.6297 22.3125 31.3345 22.3125 30.9707C22.3125 30.607 22.0185 30.3118 21.6562 30.3118H5.90625C5.544 30.3118 5.25 30.607 5.25 30.9707C5.25 31.3345 5.544 31.6297 5.90625 31.6297Z" fill="currentColor"/>
<path d="M28.2188 6.58939H34.125V13.8378C34.125 14.9277 35.0083 15.8147 36.0938 15.8147H43.3125V40.1959C43.3125 40.5596 43.0172 40.8548 42.6563 40.8548H19.047C18.6756 40.8548 18.375 40.5596 18.375 40.1959V38.878C18.375 38.5142 18.081 38.219 17.7188 38.219C17.3565 38.219 17.0625 38.5142 17.0625 38.878V40.1959C17.0625 41.2858 17.9524 42.1727 19.047 42.1727H42.6563C43.7417 42.1727 44.625 41.2858 44.625 40.1959V15.1557C44.625 15.1254 44.6119 15.0991 44.6079 15.0701C44.604 15.0411 44.5988 15.016 44.5909 14.9884C44.5607 14.875 44.5121 14.7696 44.4308 14.6892L35.2446 5.46522C35.1645 5.38351 35.0582 5.33474 34.9453 5.30443C34.9178 5.29652 34.8941 5.29257 34.8652 5.28862C34.8377 5.28466 34.8114 5.27148 34.7813 5.27148H28.2188C27.8565 5.27148 27.5625 5.56669 27.5625 5.93043C27.5625 6.29418 27.8565 6.58939 28.2188 6.58939ZM36.0938 14.4968C35.7328 14.4968 35.4375 14.2016 35.4375 13.8378V7.52114L42.3846 14.4968H36.0938Z" fill="currentColor"/>
<path d="M30.8437 21.0865H38.7187C39.081 21.0865 39.375 20.7912 39.375 20.4275C39.375 20.0638 39.081 19.7686 38.7187 19.7686H30.8437C30.4815 19.7686 30.1875 20.0638 30.1875 20.4275C30.1875 20.7912 30.4815 21.0865 30.8437 21.0865Z" fill="currentColor"/>
<path d="M30.8437 26.3579H38.7187C39.081 26.3579 39.375 26.0627 39.375 25.699C39.375 25.3352 39.081 25.04 38.7187 25.04H30.8437C30.4815 25.04 30.1875 25.3352 30.1875 25.699C30.1875 26.0627 30.4815 26.3579 30.8437 26.3579Z" fill="currentColor"/>
<path d="M30.8437 31.6297H38.7187C39.081 31.6297 39.375 31.3345 39.375 30.9707C39.375 30.607 39.081 30.3118 38.7187 30.3118H30.8437C30.4815 30.3118 30.1875 30.607 30.1875 30.9707C30.1875 31.3345 30.4815 31.6297 30.8437 31.6297Z" fill="currentColor"/>
<path d="M30.8437 36.9012H38.7187C39.081 36.9012 39.375 36.6059 39.375 36.2422C39.375 35.8785 39.081 35.5833 38.7187 35.5833H30.8437C30.4815 35.5833 30.1875 35.8785 30.1875 36.2422C30.1875 36.6059 30.4815 36.9012 30.8437 36.9012Z" fill="currentColor"/>
</svg>
