<svg viewBox="0 0 56 42" fill="none" xmlns="http://www.w3.org/2000/svg">
<path d="M17.2379 27.6895C18.032 27.4454 18.3362 26.9571 18.3973 26.5907C18.3362 26.1019 18.0535 25.9039 17.9613 25.0153C17.8535 23.9809 18.7171 21.5063 18.9739 21.0648C18.9389 20.9803 18.9028 20.9057 18.8684 20.819C17.665 20.0556 16.4393 18.675 15.876 16.1797C15.5748 14.8457 15.8239 13.4824 16.5455 12.3202C16.5455 12.3202 15.7292 6.62496 16.8787 2.90534C15.8049 2.38843 14.6355 2.47549 13.0327 2.63562C11.8027 2.75878 11.6281 3.02018 10.6833 2.88314C9.60061 2.72574 8.722 2.39707 8.45775 2.26473C8.3055 2.18882 6.87739 3.45582 6.47981 4.49051C5.21861 7.76815 5.55723 10.0153 5.87825 11.7155C5.86753 11.8896 5.85375 12.0631 5.85375 12.2391L6.14687 13.4844C6.14797 13.4975 6.14687 13.5098 6.14731 13.5223C5.50834 14.0954 5.12323 14.9239 5.32656 15.8245C5.74525 17.6767 6.64672 18.4278 7.53441 18.7532C8.12317 20.4142 8.69444 21.463 9.36108 22.1681C9.52962 22.9367 9.67848 23.9805 9.57064 25.0154C9.12067 29.35 0 27.0667 0 34.6767C0 35.6733 2.83839 37.2993 9.71447 37.7675C9.69434 37.6207 9.68056 37.4728 9.68056 37.3215C9.68056 30.4971 14.1168 28.6499 17.2379 27.6895Z" fill="currentColor"/>
<path d="M46.4297 25.0153C46.3218 23.981 46.4703 22.9378 46.6388 22.1704C47.3066 21.464 47.8778 20.4147 48.4668 18.7529C49.3541 18.4272 50.2551 17.6757 50.6733 15.8244C50.8669 14.9718 50.5319 14.1832 49.9525 13.6151C50.3723 12.2081 52.023 5.68888 47.0653 4.36676C45.4165 2.30624 43.9745 2.38849 41.5012 2.63568C40.2712 2.75884 40.0964 3.02024 39.1522 2.8832C38.9455 2.85312 38.7495 2.8156 38.5605 2.77557C38.7418 3.02276 38.9146 3.27826 39.0676 3.55126C40.7226 6.50799 40.2855 10.2527 39.7656 12.5399C40.3857 13.6566 40.5886 14.94 40.3084 16.1805C39.7451 18.6742 38.5199 20.0544 37.3172 20.818C37.2569 20.9692 37.0796 21.2789 37.3238 21.5842C37.5468 21.9457 37.5867 21.9113 37.8298 22.1681C37.9982 22.9367 38.1468 23.9804 38.0388 25.0153C37.9499 25.8739 36.469 26.5908 36.8867 26.9377C37.2975 27.1106 37.7741 27.2914 38.3086 27.4876C41.3738 28.6131 46.5038 30.4972 46.5038 37.3216C46.5038 37.4683 46.491 37.6124 46.472 37.7547C53.2135 37.2705 56 35.6644 56 34.6768C56 27.0668 46.8795 29.3501 46.4297 25.0153Z" fill="currentColor"/>
<path d="M32.9224 26.1976C32.7982 25.007 32.9696 23.8059 33.1631 22.9211C33.9317 22.1092 34.5901 20.9003 35.2679 18.9871C36.2895 18.6123 37.327 17.7474 37.8087 15.6155C38.0305 14.6338 37.6453 13.726 36.979 13.0719C37.4615 11.4521 39.3617 3.94598 33.6542 2.42392C31.7561 0.0513603 30.0952 0.146188 27.2481 0.430891C25.8316 0.572423 25.6303 0.873641 24.5431 0.715594C23.2963 0.53436 22.285 0.155923 21.9807 0.0037823C21.8055 -0.0840458 20.161 1.37513 19.7029 2.56622C18.2514 6.33966 18.6414 8.92736 19.0105 10.8848C18.9984 11.0853 18.9816 11.2849 18.9816 11.4876L19.3198 12.9215C19.3209 12.9363 19.3198 12.9504 19.3203 12.9652C18.5846 13.6247 18.1415 14.5787 18.3757 15.6155C18.8572 17.7481 19.8954 18.6128 20.9174 18.9873C21.5954 20.8998 22.2525 22.1081 23.0207 22.92C23.2147 23.8042 23.3861 25.0065 23.2619 26.1976C22.7437 31.1879 12.243 28.5593 12.243 37.3217C12.243 38.673 16.7712 41.0297 28.0921 41.0297C39.4131 41.0297 43.9412 38.673 43.9412 37.3217C43.9412 28.5592 33.4406 31.1879 32.9224 26.1976ZM26.2543 39.5793L23.3804 27.9059L26.9158 29.3773L26.7257 31.0856L27.2874 31.0734L26.2543 39.5793ZM30.2104 39.5793L29.1771 31.0734L29.7388 31.0856L29.5487 29.3773L33.0841 27.9059L30.2104 39.5793Z" fill="currentColor"/>
</svg>
