<svg viewBox="0 0 42 33" fill="none" xmlns="http://www.w3.org/2000/svg">
<path d="M41.0219 32.0024H36.7724C36.2322 32.0024 35.7943 31.5645 35.7943 31.0243V17.4665C35.7943 16.9263 36.2322 16.4885 36.7724 16.4885H41.0219C41.562 16.4885 42 16.9263 42 17.4665V31.0243C42 31.5646 41.562 32.0024 41.0219 32.0024ZM33.6344 19.342C32.8748 18.9557 30.9684 18.1246 28.6298 18.1246C25.5834 18.1246 22.3678 20.3812 22.3678 20.3812C19.929 20.3812 14.8291 20.3812 14.0185 20.3812C12.9467 20.3812 10.6601 20.9454 10.6601 23.6533C10.6601 25.9098 12.7774 26.9253 14.0185 26.9253C15.2595 26.9253 23.6653 26.9253 23.6653 26.9253C24.561 27.0114 25.3013 27.9849 25.3013 27.9849C25.3013 27.9849 15.9379 27.9849 13.9455 27.9849C11.953 27.9849 9.99349 26.5868 9.6555 25.1242C7.34255 23.5446 4.30983 20.3189 2.91106 18.8509C1.26339 17.1217 -1.02644 18.9966 0.504093 21.1817C1.25803 22.2581 4.18932 25.4081 7.59317 28.8883C10.6457 32.0092 16.0982 32.8649 20.3045 32.8649C24.7906 32.8649 29.3035 30.4234 33.5538 29.73C33.8273 29.6854 33.9891 29.3921 33.9891 29.115V19.9224C33.9891 19.677 33.8532 19.4531 33.6344 19.342ZM9.23097 22.9277C9.799 22.789 10.3427 22.1255 10.0981 21.7139C9.56724 20.8207 5.63853 17.489 4.29391 16.9497C3.19429 16.5087 2.94462 17.4651 2.94462 17.4651C2.94462 17.4651 8.75764 22.5164 9.23097 22.9277ZM10.3511 20.5873C10.9191 20.4486 11.4629 19.785 11.2182 19.3734C10.6874 18.4803 7.97906 16.369 6.63445 15.8297C5.53476 15.3886 5.28516 16.3451 5.28516 16.3451C5.28516 16.3451 9.87771 20.1759 10.3511 20.5873ZM28.8286 3.02729V13.1217C28.8286 14.7936 27.4732 16.1489 25.8014 16.1489H14.43C12.7581 16.1489 11.4028 14.7935 11.4028 13.1217V3.02729C11.4028 1.35539 12.7581 0 14.43 0H19.0559V2.27864H21.2038V0H25.8015C27.4733 0 28.8286 1.35539 28.8286 3.02729ZM22.9846 8.79118L19.7417 4.92532L16.4869 8.77704C16.5552 8.77704 16.5548 8.77704 18.3865 8.77704V13.2255H21.0735V8.77704C22.9661 8.77711 22.9846 8.79118 22.9846 8.79118Z" fill="currentColor"/>
</svg>
