<svg viewBox="0 0 30 42" fill="none" xmlns="http://www.w3.org/2000/svg">
<path d="M0.0807689 34.2541L2.82923 41.2642C3.00231 41.7033 3.42 41.993 3.88846 41.9977C3.89077 41.9977 3.89538 41.9977 3.9 41.9977C4.09846 41.9977 4.27846 41.9253 4.44692 41.8318C4.87385 41.9323 5.30538 41.9977 5.74615 41.9977H15.0346C15.6715 41.9977 16.1885 41.4744 16.1885 40.8297C16.1885 40.185 15.6715 39.6617 15.0346 39.6617H5.74615C5.69769 39.6617 5.65385 39.6617 5.60769 39.6594L7.71692 34.2517C7.77 34.1139 7.79769 33.9457 7.79769 33.7962L7.78154 19.0098C7.78154 19.0028 7.78615 18.9958 7.78615 18.9888C7.78615 18.9818 7.78154 18.9748 7.78154 18.9677V15.3424C7.78154 15.3284 7.78846 15.3167 7.78846 15.3003C7.78846 15.2863 7.78154 15.2746 7.77923 15.2606L7.77692 12.2403C7.77692 10.0632 6.03692 8.29255 3.9 8.29255C3.62308 8.29255 3.35538 8.32292 3.09462 8.37898C3.00231 8.39767 2.91692 8.43738 2.82692 8.46307C2.66308 8.50979 2.49923 8.55651 2.34461 8.62425C2.33538 8.62892 2.31923 8.63126 2.30769 8.63827V5.83982C2.30769 3.90801 3.85154 2.33593 5.74615 2.33593H18.8146C18.7685 2.50178 18.7385 2.67464 18.7385 2.85217V7.87208C18.7385 9.81791 20.3031 11.3993 22.2231 11.3993H27.1823C27.3577 11.3993 27.5285 11.369 27.6923 11.3222V36.1602C27.6923 38.092 26.1485 39.6641 24.2538 39.6641H18.8169C18.18 39.6641 17.6631 40.1873 17.6631 40.832C17.6631 41.4768 18.18 42 18.8169 42H24.2538C27.4223 42 30 39.3791 30 36.1602V10.2314C30 9.92303 29.8777 9.62403 29.6631 9.40445L20.7092 0.341045C20.4923 0.123804 20.1992 0 19.8923 0H5.74615C2.57769 0 0 2.62091 0 5.83982V12.2403V15.3003V18.9911V33.8009C0 33.913 0.0346153 34.0135 0.0623076 34.1162C0.073846 34.1606 0.064615 34.2097 0.0807689 34.2541ZM21.0462 3.98743L26.0608 9.0634H22.2231C21.5746 9.0634 21.0462 8.52848 21.0462 7.87208V3.98743ZM3.90231 37.6739L2.85231 34.9922H4.94769L3.90231 37.6739ZM2.30769 12.2403C2.30769 11.3363 3.00923 10.6285 3.9 10.6285C4.76538 10.6285 5.46923 11.3526 5.46923 12.2403V14.1324H2.30769V12.2403ZM2.30769 16.4683H5.46923V17.8231H2.30769V16.4683ZM2.30769 20.1591H5.47154L5.49 32.6329H2.30769V20.1591Z" fill="currentColor"/>
</svg>
