<svg viewBox="0 0 40 40" fill="none" xmlns="http://www.w3.org/2000/svg">
<path d="M28.5714 35.7143C28.5714 36.0932 28.4209 36.4565 28.153 36.7244C27.8851 36.9923 27.5217 37.1429 27.1429 37.1429H4.28571C3.90683 37.1429 3.54347 36.9923 3.27556 36.7244C3.00765 36.4565 2.85714 36.0932 2.85714 35.7143V4.28572C2.85714 3.90684 3.00765 3.54347 3.27556 3.27556C3.54347 3.00765 3.90683 2.85714 4.28571 2.85714H18.5714V8.57143C18.5714 9.70807 19.023 10.7982 19.8267 11.6019C20.6304 12.4056 21.7205 12.8571 22.8571 12.8571L25.7143 10H22.8571C22.4783 10 22.1149 9.84949 21.847 9.58158C21.5791 9.31367 21.4286 8.95031 21.4286 8.57143V4.87143L26.1286 9.57143L28.1429 7.55714L22.2714 1.67143C21.7404 1.14095 21.11 0.720297 20.4163 0.433508C19.7226 0.146719 18.9792 -0.000588491 18.2286 1.76685e-06H4.28571C3.14907 1.76685e-06 2.05898 0.451531 1.25526 1.25526C0.451529 2.05899 0 3.14907 0 4.28572V35.7143C0 36.8509 0.451529 37.941 1.25526 38.7447C2.05898 39.5485 3.14907 40 4.28571 40H27.1429C28.2795 40 29.3696 39.5485 30.1733 38.7447C30.977 37.941 31.4286 36.8509 31.4286 35.7143V24.8857L28.5714 27.7429V35.7143Z" fill="currentColor"/>
<path d="M38.5714 7.48572C38.188 7.02664 37.7084 6.65736 37.1666 6.40397C36.6247 6.15057 36.0339 6.01923 35.4357 6.01923C34.8376 6.01923 34.2467 6.15057 33.7049 6.40397C33.163 6.65736 32.6835 7.02664 32.3 7.48572L29.4429 10.3429L17.3 22.4286C16.7845 22.9556 16.338 23.5461 15.9714 24.1857L12.4143 31.4286H7.14286C6.76398 31.4286 6.40061 31.5791 6.1327 31.847C5.8648 32.1149 5.71429 32.4783 5.71429 32.8571C5.71429 33.236 5.8648 33.5994 6.1327 33.8673C6.40061 34.1352 6.76398 34.2857 7.14286 34.2857H12.8571C13.2131 34.2809 13.5544 34.1433 13.8143 33.9C13.8995 33.9134 13.9862 33.9134 14.0714 33.9L21.9429 30C22.5368 29.6405 23.0839 29.2086 23.5714 28.7143L24.3714 27.9286L38.5714 13.7429C39.0081 13.3445 39.3597 12.8621 39.6052 12.3244C39.8507 11.7868 39.985 11.2051 40 10.6143C39.9818 10.024 39.846 9.44334 39.6007 8.90616C39.3554 8.36898 39.0055 7.88609 38.5714 7.48572ZM20.9571 27.1429L20.5714 27.4143L16.5714 29.3857L18.4714 25.4857C18.6666 25.1787 18.8915 24.8916 19.1429 24.6286L20.0143 25.5L21.3286 26.8286L20.9571 27.1429ZM23.3714 24.8143L22.2571 23.7143L21.1429 22.5857L30.4286 13.3L32.6571 15.5286L23.3714 24.8143ZM36.5 11.6857L34.6714 13.5714L32.4429 11.3286L34.2857 9.51429C34.5679 9.17311 34.9634 8.94491 35.4 8.87143C35.8357 8.94731 36.2305 9.17506 36.5143 9.51429C36.8507 9.80044 37.0778 10.1941 37.1571 10.6286C37.0707 11.0637 36.839 11.4567 36.5 11.7429V11.6857Z" fill="currentColor"/>
</svg>
