<svg viewBox="0 0 25 19" fill="none" xmlns="http://www.w3.org/2000/svg">
<path fill-rule="evenodd" clip-rule="evenodd" d="M0.680412 1.38691C1.3085 0.557211 2.33064 0 3.5 0H21.5C22.6694 0 23.6915 0.557211 24.3196 1.38691C24.7491 1.95423 25 2.65406 25 3.40417V15.5958C25 17.4349 23.4755 19 21.5 19H3.5C1.52455 19 0 17.4349 0 15.5958V3.40417C0 2.65405 0.250925 1.95423 0.680412 1.38691ZM3.66588 2.375L11.5747 10.6456C12.0708 11.1643 12.9292 11.1643 13.4253 10.6456L21.3341 2.375H3.66588ZM22.5 4.68785L15.2756 12.2427C13.7876 13.7986 11.2124 13.7986 9.72435 12.2427L2.5 4.68785V15.5958C2.5 16.2053 2.99018 16.625 3.5 16.625H21.5C22.0099 16.625 22.5 16.2053 22.5 15.5958V4.68785Z" fill="currentColor"/>
</svg>
