<svg viewBox="0 0 36 43" fill="none" xmlns="http://www.w3.org/2000/svg">
<path d="M24.4403 43C24.7519 43 25.0077 42.9522 25.2728 42.9019C25.6704 42.9617 26.0681 43 26.4634 43C31.7212 43 36 38.6115 36 33.2186C36 29.2677 33.7211 25.7833 30.2329 24.2264V10.475C30.2329 10.1545 30.1074 9.84599 29.8841 9.62119L28.826 8.55456C28.7888 8.50195 28.7493 8.45172 28.7051 8.40868L20.8754 0.358732C20.6545 0.129144 20.3568 0 20.0452 0H11.7132C11.0714 0 10.5505 0.535706 10.5505 1.19577C10.5505 1.85584 11.0714 2.39155 11.7132 2.39155H18.9476C18.9011 2.56135 18.8709 2.73832 18.8709 2.92008V8.05951C18.8709 10.0517 20.4475 11.6707 22.3823 11.6707H27.3796C27.561 11.6707 27.7354 11.642 27.9052 11.5894V23.5161C27.8563 23.5089 27.8191 23.5113 27.7703 23.5041C27.3099 23.4324 26.8727 23.3869 26.4634 23.3869C21.2056 23.3869 16.9291 27.7969 16.9291 33.2162C16.9291 33.8834 17.0129 34.5315 17.1384 35.1677C17.178 35.3662 17.2407 35.5527 17.2896 35.7464C17.4035 36.1793 17.5384 36.6026 17.7082 37.0116C17.7919 37.2148 17.8826 37.4133 17.9802 37.6118C18.1756 38.0064 18.3988 38.3795 18.643 38.743C18.7546 38.9081 18.8546 39.0755 18.9732 39.2309C19.3336 39.6997 19.7266 40.1397 20.1661 40.5343C20.1894 40.5558 20.208 40.5845 20.2313 40.6061H5.76707C3.86952 40.6061 2.32543 38.9966 2.32543 37.0187V5.97887C2.32543 4.00106 3.86952 2.39155 5.76707 2.39155H7.71578C8.3576 2.39155 8.8785 1.85584 8.8785 1.19577C8.8785 0.535706 8.3576 0 7.71578 0H5.76707C2.58588 0 0 2.68332 0 5.97887V37.0211C0 40.3167 2.58588 43 5.76707 43H24.4403ZM22.3823 9.2792C21.7288 9.2792 21.1963 8.73153 21.1963 8.05951V4.08237L26.2495 9.2792H22.3823ZM19.2546 33.2186C19.2546 29.1171 22.4892 25.7809 26.4634 25.7809C26.989 25.7809 27.5703 25.8622 28.24 26.0224L28.7237 26.1587C31.6398 27.1464 33.6746 30.0474 33.6746 33.2186C33.6746 37.2938 30.4399 40.6085 26.4634 40.6085C26.1332 40.6085 25.8076 40.5893 25.3007 40.5128L25.0333 40.4626C21.6846 39.7953 19.2546 36.7485 19.2546 33.2186Z" fill="currentColor"/>
<path d="M24.7263 35.9402C24.9542 36.1745 25.2519 36.2893 25.5495 36.2893C25.8472 36.2893 26.1448 36.1721 26.3727 35.9402L30.0539 32.1543C30.5073 31.688 30.5073 30.9299 30.0539 30.4635C29.6004 29.9972 28.8633 29.9972 28.4098 30.4635L25.5495 33.4051L24.531 32.3576C24.0775 31.8913 23.3404 31.8913 22.8869 32.3576C22.4334 32.824 22.4334 33.5821 22.8869 34.0484L24.7263 35.9402Z" fill="currentColor"/>
</svg>
