<svg viewBox="0 0 41 44" fill="none" xmlns="http://www.w3.org/2000/svg">
<path fill-rule="evenodd" clip-rule="evenodd" d="M18.2666 0.572732C19.6533 -0.190911 21.3466 -0.190911 22.7334 0.572732L38.6778 9.35261C40.1123 10.1425 41 11.6284 41 13.2395V30.5086C41 31.9279 40.2333 33.2412 38.9844 33.9619L22.5197 43.4607C21.2735 44.1798 19.7265 44.1798 18.4803 43.4607L2.01572 33.9619C0.766677 33.2412 0 31.9279 0 30.5086V13.2395C0 11.6284 0.887696 10.1425 2.32215 9.35261L18.2666 0.572732ZM4.84848 13.3506C5.46523 12.2773 6.85401 11.8966 7.95045 12.5004L20.5005 19.411L33.0503 12.5004C34.1468 11.8966 35.5356 12.2773 36.1524 13.3506C36.769 14.424 36.3802 15.7835 35.2837 16.3873L22.7782 23.2735V37.578C22.7782 38.8095 21.7585 39.8078 20.5005 39.8078C19.2424 39.8078 18.2227 38.8095 18.2227 37.578V23.2735L5.71704 16.3873C4.62061 15.7835 4.23175 14.424 4.84848 13.3506Z" fill="currentColor"/>
</svg>
