<svg viewBox="0 0 35 41" fill="none" xmlns="http://www.w3.org/2000/svg">
<path d="M25.0084 31.9973C25.6323 31.9973 26.1382 31.4869 26.1382 30.8572C26.1382 30.2275 25.6323 29.717 25.0084 29.717C24.3844 29.717 23.8786 30.2275 23.8786 30.8572C23.8786 31.4869 24.3844 31.9973 25.0084 31.9973Z" fill="currentColor"/>
<path d="M28.9151 31.9973C29.5391 31.9973 30.0449 31.4869 30.0449 30.8572C30.0449 30.2275 29.5391 29.717 28.9151 29.717C28.2912 29.717 27.7853 30.2275 27.7853 30.8572C27.7853 31.4869 28.2912 31.9973 28.9151 31.9973Z" fill="currentColor"/>
<path d="M33.8702 29.2176C34.4939 29.2176 35 28.7068 35 28.0775V27.3409C35 25.4688 33.4793 23.9433 31.6107 23.9433H29.3738V9.98776C29.3738 9.68448 29.254 9.39488 29.0439 9.18053L21.4293 1.4936L21.4248 1.49132L20.2792 0.335206C20.0646 0.120857 19.7776 0 19.4771 0H5.62621C2.52389 0 0 2.55623 0 5.70078V35.2992C0 38.4438 2.52389 41 5.62621 41H23.7024C25.8693 41 27.8012 39.7732 28.7456 37.876H31.6107C33.4793 37.876 35 36.3413 35 34.4555V31.9973C35 31.368 34.4939 30.8572 33.8702 30.8572C33.2466 30.8572 32.7405 31.368 32.7405 31.9973V34.4555C32.7405 35.0826 32.2343 35.5957 31.6107 35.5957H21.714C21.5265 35.5957 21.3389 35.6435 21.174 35.7348L19.3709 36.7221L20.4238 35.0757C20.5413 34.891 20.6046 34.6767 20.6046 34.4578V27.3409C20.6046 26.7161 21.0904 26.2236 21.7118 26.2236H31.6107C32.2343 26.2236 32.7405 26.7253 32.7405 27.3409V28.0775C32.7405 28.7091 33.2466 29.2176 33.8702 29.2176ZM25.5168 8.84761H21.7592C21.113 8.84761 20.6068 8.33682 20.6068 7.68465V3.89249L25.5168 8.84761ZM25.9438 37.876C25.3405 38.4073 24.552 38.7197 23.7024 38.7197H20.4622L22.001 37.876H25.9438ZM21.714 23.9433C19.8589 23.9433 18.3473 25.4688 18.3473 27.3409V34.1203L15.4032 38.722H5.62621C3.76888 38.722 2.25952 37.1873 2.25952 35.3015V5.70078C2.25952 3.81496 3.76888 2.28031 5.62621 2.28031H18.4151C18.3699 2.43993 18.3473 2.61096 18.3473 2.78426V7.68465C18.3473 9.58187 19.877 11.1279 21.7592 11.1279H26.6172C26.7889 11.1279 26.9538 11.1028 27.1143 11.0595V23.9433H21.714Z" fill="currentColor"/>
</svg>
